# xmcd
#
# Track frame offsets:
#	150
#	18898
#	35130
#	52730
#	68795
#	85673
#	102958
#	120670
#	133627
#	152675
#	165543
#	182120
#	201849
#	216156
#	232600
#	244575
#	259442
#	279038
#	294713
#	314179
#
# Disc length: 4406 seconds
#
# Revision: 2
# Processed by: cddbd v1.5PL3 Copyright (c) Steve Scherf et al.
# Submitted via: EasyCDDAExtractor 6.0.0.1
#
DISCID=17113414
DTITLE=Kenny Rogers - Through the years
DYEAR=2001
DGENRE=Blues
TTITLE0=Islands in the stream
TTITLE1=Lucille
TTITLE2=Lady
TTITLE3=The gambler
TTITLE4=Love lifted me
TTITLE5=We've got tonight
TTITLE6=Scarlet fever
TTITLE7=Love or something like it
TTITLE8=She believes in me
TTITLE9=Ruby, don't take your love to town
TTITLE10=Don't fall in love with a dreamer
TTITLE11=Through the years
TTITLE12=Daytime friends
TTITLE13=You decorated my life
TTITLE14=Reuben James
TTITLE15='Til I can make it on my own
TTITLE16=Coward of the county
TTITLE17=I don't need you
TTITLE18=Something's burning
TTITLE19=Love will turn you around
EXTD=
EXTT0=Duet with Dolly Parton
EXTT1=
EXTT2=
EXTT3=
EXTT4=
EXTT5=Duet with Sheena Easton
EXTT6=
EXTT7=
EXTT8=
EXTT9=
EXTT10=Duet with Kim Carnes
EXTT11=
EXTT12=
EXTT13=
EXTT14=
EXTT15=
EXTT16=
EXTT17=
EXTT18=
EXTT19=
PLAYORDER=
